<svg viewBox="0 0 63 33.21" xmlns="http://www.w3.org/2000/svg" id="Layer_2">
  <defs>
    <style>
      .cls-1 {
        fill: #1d1d1f;
        stroke-width: 0px;
      }
    </style>
  </defs>
  <g id="Layer_1-2">
    <path d="m59.03,20.91c-.4,4.68-3.25,8.78-9.27,8.78-6.64,0-10.97-5.26-10.97-13.06s3.92-13.15,10.92-13.15c5.04,0,8.2,2.72,8.96,6.69h3.92c-.85-5.88-5.35-10.16-12.79-10.16-3.91,0-7.14,1.24-9.62,3.34l1.63-2.63h-4.28l-9.27,15.45h-.09L19.04.71h-4.47v23.54c0,4.01-1.87,5.66-5.08,5.66-3.74,0-5.53-1.69-5.53-7.36v-.31H0v.45c0,7.4,3.61,10.52,9.36,10.52,6.15,0,9.23-3.61,9.23-8.69V7.21l7.54,12.23v13.77h4.01v-13.68l5.32-8.58c-.5,1.76-.77,3.67-.77,5.67,0,9.67,5.88,16.58,14.93,16.58,4.06,0,7.31-1.16,9.54-3.34,2.27-2.23,3.79-5.79,3.83-8.96h-3.97Z" class="cls-1"></path>
  </g>
</svg>