<?xml version="1.0" encoding="UTF-8"?>
<svg id="Layer_2" data-name="Layer 2" xmlns="http://www.w3.org/2000/svg" viewBox="0 0 93.45 26.71">
  <defs>
    <style>
      .cls-1 {
        fill: #1d1d1f;
      }
    </style>
  </defs>
  <g id="Layer_1-2" data-name="Layer 1">
    <g>
      <path class="cls-1" d="m10.8,1.15v15.55c0,1.91-.07,3.82-.9,5.47-.76,1.51-2.38,3.46-5.65,3.46-2.12,0-3.53-.76-4.25-1.22l1.8-3.1c.47.4,1.22.86,2.52.86.61,0,1.8-.11,2.41-1.62.22-.54.4-1.4.4-3.85V1.15h3.67Z"/>
      <path class="cls-1" d="m23.36,14.79L15.48,1.15h4.18l5.54,9.61L30.74,1.15h4.18l-7.88,13.64v10.37h-3.67v-10.37Z"/>
      <path class="cls-1" d="m56.3,6.77c-2.66-2.41-5.15-2.66-6.52-2.66-5.22,0-8.75,3.85-8.75,9.14s3.67,9,8.78,9c2.88,0,5.11-1.48,6.48-2.77v4.36c-2.41,1.44-4.93,1.8-6.59,1.8-4.36,0-7.09-1.98-8.5-3.31-2.81-2.63-3.85-5.69-3.85-9.07,0-4.43,1.84-7.49,3.85-9.39,2.48-2.34,5.36-3.13,8.68-3.13,2.2,0,4.32.4,6.41,1.73v4.32Z"/>
      <path class="cls-1" d="m63.86,1.15l6.33,16.05L76.68,0l6.26,17.21,6.55-16.05h3.96l-10.73,25.56-6.26-17.03-6.33,17.03L59.9,1.15h3.96Z"/>
    </g>
  </g>
</svg>