<?xml version="1.0" encoding="UTF-8"?>
<svg id="Layer_2" data-name="Layer 2" xmlns="http://www.w3.org/2000/svg" viewBox="0 0 66.83 35.23">
  <defs>
    <style>
      .cls-1 {
        fill: #1d1d1f;
      }
    </style>
  </defs>
  <g id="Layer_1-2" data-name="Layer 1">
    <path class="cls-1" d="m62.62,22.18c-.43,4.96-3.45,9.31-9.84,9.31-7.05,0-11.63-5.58-11.63-13.85s4.16-13.95,11.58-13.95c5.34,0,8.7,2.88,9.5,7.09h4.16c-.9-6.24-5.68-10.78-13.57-10.78-4.14,0-7.58,1.32-10.2,3.55l1.73-2.79h-4.54l-9.83,16.39h-.09L20.2.76h-4.74v24.97c0,4.26-1.99,6.01-5.39,6.01-3.97,0-5.86-1.8-5.86-7.8v-.33H0v.47c0,7.85,3.83,11.16,9.93,11.16,6.53,0,9.79-3.83,9.79-9.22V7.64l8,12.98v14.61h4.26v-14.51l5.65-9.1c-.53,1.87-.82,3.89-.82,6.02,0,10.26,6.24,17.59,15.84,17.59,4.3,0,7.75-1.23,10.12-3.55,2.41-2.36,4.02-6.15,4.07-9.5h-4.21Z"/>
  </g>
</svg>