<?xml version="1.0" encoding="UTF-8"?>
<svg id="Layer_2" data-name="Layer 2" xmlns="http://www.w3.org/2000/svg" viewBox="0 0 10 5.27">
  <defs>
    <style>
      .cls-1 {
        fill: #1d1d1f;
        stroke-width: 0px;
      }
    </style>
  </defs>
  <g id="Layer_2-2" data-name="Layer 2">
    <g id="Layer_1-2" data-name="Layer 1-2">
      <path class="cls-1" d="m9.37,3.32c-.06.74-.52,1.39-1.47,1.39-1.05,0-1.74-.84-1.74-2.07s.62-2.09,1.73-2.09c.8,0,1.3.43,1.42,1.06h.62c-.13-.93-.85-1.61-2.03-1.61-.62,0-1.13.2-1.53.53l.26-.42h-.68l-1.47,2.45h-.01L3.02.11h-.71v3.74c0,.64-.3.9-.81.9-.59,0-.88-.27-.88-1.17v-.05h-.63v.07c0,1.17.57,1.67,1.49,1.67.98,0,1.47-.57,1.47-1.38V1.14l1.2,1.94v2.19h.64v-2.17l.84-1.36c-.08.28-.12.58-.12.9,0,1.54.93,2.63,2.37,2.63.64,0,1.16-.18,1.51-.53.36-.35.6-.92.61-1.42h-.63,0Z"/>
    </g>
  </g>
</svg>