<?xml version="1.0" encoding="UTF-8"?>
<svg id="Layer_2" data-name="Layer 2" xmlns="http://www.w3.org/2000/svg" viewBox="0 0 51.15 26.82">
  <defs>
    <style>
      .cls-1 {
        fill: #1d1d1f;
      }
    </style>
  </defs>
  <g id="Layer_1-2" data-name="Layer 1">
    <g>
      <path class="cls-1" d="m0,18.32v-.36h3.2v.25c0,4.57,1.44,5.94,4.46,5.94,2.59,0,4.1-1.33,4.1-4.57V.58h3.24v19.22c0,4.1-2.48,7.02-7.45,7.02-4.64,0-7.56-2.52-7.56-8.5Z"/>
      <path class="cls-1" d="m21.38,15.41L12.06.58h3.6l7.38,12.24h.07L30.6.58h3.46l-9.43,14.9v10.83h-3.24v-10.91Z"/>
      <path class="cls-1" d="m28.3,13.43c0-7.56,4.54-13.43,12.2-13.43,6.01,0,9.65,3.46,10.33,8.21h-3.17c-.61-3.2-3.17-5.4-7.23-5.4-5.65,0-8.82,4.57-8.82,10.62s3.49,10.55,8.85,10.55c4.86,0,7.16-3.31,7.49-7.09h3.2c-.04,2.56-1.26,5.44-3.1,7.23-1.8,1.76-4.43,2.7-7.7,2.7-7.31,0-12.06-5.58-12.06-13.39Z"/>
    </g>
  </g>
</svg>